PathFileType	4	(X/Y/Z)	C:\Users\WrightLab\Desktop\Jo\P2_Trial21.trc
DataRate	CameraRate	NumFrames	NumMarkers	Units	OrigDataRate	OrigDataStartFrame	OrigNumFrames
100.00	100.00	       12	19	mm	100.00	151	       600
Frame#	Time	Headset_Front			Headset_Back			Headset_Left			Headset_Right			Left_Shoulder			Right_Shoulder			Sternum			C7			Left Elbow			Right Elbow			Left Wrist			Right Wrist			Left ASIS			Right ASIS			S2			Left Knee			Right Knee			Left Ankle			Right Ankle			
		X1	Y1	Z1	X2	Y2	Z2	X3	Y3	Z3	X4	Y4	Z4	X5	Y5	Z5	X6	Y6	Z6	X7	Y7	Z7	X8	Y8	Z8	X9	Y9	Z9	X10	Y10	Z10	X11	Y11	Z11	X12	Y12	Z12	X13	Y13	Z13	X14	Y14	Z14	X15	Y15	Z15	X16	Y16	Z16	X17	Y17	Z17	X18	Y18	Z18	X19	Y19	Z19	

151	1.500	-909.11548	1433.94690	-132.15080	-948.76819	1670.32971	-322.37021	-823.93494	1561.89404	-272.09201				-803.23566	1425.12170	-346.68610	-1114.69592	1438.86816	-354.10672	-969.41534	1305.13452	-297.57385	-971.91364	1424.55054	-464.34921	-654.83698	1159.25085	-343.51724										-923.11261	1016.33386	-266.44699	-1054.96753	995.84149	-278.51709	-936.40277	935.56714	-532.10315	-892.21851	486.78323	-175.35812	-1184.37842	525.01447	-475.97046	-946.32037	194.71811	-302.74338				
152	1.510	-908.21448	1433.54443	-123.08541	-949.52368	1669.81787	-314.19147	-823.96942	1560.81262	-265.08920				-804.80280	1424.77014	-340.35007	-1118.68506	1438.12488	-345.14935	-970.35034	1304.35522	-288.53494	-975.16754	1423.98828	-455.65103	-655.54053	1159.37512	-342.19260										-923.93811	1016.01227	-260.06665	-1055.80164	995.25751	-269.31244	-939.27069	935.57172	-524.84320	-892.18884	485.76627	-170.67006	-1182.80188	524.35901	-472.97919	-951.90857	184.77899	-283.40735				
153	1.520	-906.86609	1433.26245	-112.62658	-950.64630	1668.84717	-305.23413	-824.66949	1559.95776	-258.85168				-806.23853	1423.83191	-334.77170	-1117.34143	1436.94617	-333.27139	-970.83038	1303.24744	-281.51498	-978.30945	1422.97644	-447.32996	-656.36444	1158.91821	-339.84262										-924.97504	1015.20703	-252.88551	-1056.41760	994.19739	-259.34482	-942.16357	934.94733	-517.44452	-892.27496	484.36139	-165.92668	-1180.98572	523.77740	-469.97452	-956.29022	174.94698	-266.22650				
154	1.530	-905.12366	1432.12769	-105.13367	-951.43829	1668.04309	-296.73727	-824.59662	1558.76672	-250.91696				-807.83990	1423.68579	-328.40491	-1118.55164	1435.85010	-322.81998	-971.03101	1302.07434	-272.26782	-981.04675	1422.29456	-438.95676	-656.84009	1159.13000	-338.27435										-925.31702	1014.51294	-244.08342	-1056.71606	992.22754	-250.44617	-945.58893	935.01508	-509.86560	-892.86560	482.31155	-161.01515				-960.32629	163.54350	-248.62090				
155	1.540	-903.07745	1431.34485	-97.83820	-952.13092	1667.17834	-288.29877	-824.54163	1558.59802	-245.65828				-808.69824	1422.88171	-321.64548	-1119.40662	1434.83203	-312.32986	-970.98315	1300.73499	-263.78076	-983.78589	1421.14539	-430.00912	-657.15900	1158.24475	-335.20328										-925.77557	1013.67212	-236.95154	-1057.21899	992.19598	-243.45772	-947.87445	933.89105	-501.62088	-892.68353	480.15616	-158.02310	-1178.29846	516.18726	-478.07568	-964.41931	152.77010	-231.51460				
156	1.550	-899.96405	1429.20496	-82.39706	-952.94989	1666.21643	-279.26541	-824.87445	1556.94263	-237.37956				-809.97260	1421.88306	-315.68851	-1120.19189	1433.56555	-302.40649	-970.92511	1299.59631	-256.08163	-986.08771	1420.25659	-421.27838	-658.17401	1158.41162	-330.78568										-925.58923	1012.66754	-227.96468	-1056.71924	990.54681	-232.82449	-950.71692	933.92383	-494.48218	-892.45795	477.99411	-154.02742	-1177.73621	516.13312	-471.40042	-968.46875	139.21982	-213.01120				
157	1.560	-899.63837	1429.29993	-82.19529	-953.12109	1665.45984	-270.68933	-824.71045	1556.53333	-230.31129				-810.76282	1420.93420	-308.34528	-1120.89331	1432.53821	-291.52237	-971.27948	1299.07288	-246.98621	-988.23248	1419.12622	-413.14264	-657.93512	1158.41138	-328.91599										-925.57843	1011.18872	-221.83652	-1058.05554	988.21191	-225.98209	-953.42578	933.30518	-485.65512	-892.02716	474.53201	-150.95819	-1175.69238	514.79663	-471.42627	-970.62109	129.23938	-195.73798				
158	1.570	-896.15314	1425.77844	-70.08394	-953.53607	1664.16711	-261.65326	-824.41272	1554.71216	-224.02356				-811.25366	1419.72461	-301.22552	-1121.27234	1431.45923	-281.58667	-971.34814	1298.96021	-237.12938	-990.17010	1417.99292	-403.58969	-658.60620	1157.60767	-326.01245										-925.88910	1010.97870	-212.61591	-1057.00806	987.95703	-215.91484	-955.35254	932.64996	-477.44177	-891.61755	471.18951	-148.59288	-1168.74084	518.47308	-446.11157	-970.54395	119.56748	-175.61201				
159	1.580	-895.55536	1425.82227	-66.44629	-953.82697	1663.20288	-252.88353	-824.04333	1554.18982	-216.99628	-1018.46118	1510.54993	-98.42455	-812.32697	1419.24268	-294.62057	-1121.53809	1430.30347	-271.23618	-970.42023	1295.79614	-231.15407	-991.68762	1416.66162	-394.76831	-658.55365	1157.35974	-320.71622										-925.94611	1009.84460	-204.14519	-1056.46606	985.88330	-207.65248	-957.38220	932.12207	-469.19244	-890.17572	466.78311	-146.74800	-1165.90344	518.17468	-441.47882	-969.97766	111.60680	-155.97490				
160	1.590	-891.78577	1424.36743	-53.80547	-953.38690	1661.80139	-244.61412	-823.46582	1553.37939	-205.75009	-1016.64447	1509.26563	-89.42336	-812.36450	1417.48901	-286.90311	-1121.50366	1429.09265	-260.97858	-970.95508	1295.45056	-219.13109	-993.03894	1415.27148	-385.55655	-658.46497	1156.71021	-316.12683										-924.97174	1007.72833	-193.67081	-1057.28955	985.05170	-198.42444	-959.15192	931.66223	-460.21521	-887.52948	462.05124	-143.13881	-1163.07239	517.84271	-435.98264	-967.29254	106.52244	-134.28928				
161	1.600	-889.98645	1422.64258	-45.69156	-953.68243	1661.02954	-235.81894	-822.86707	1552.08264	-197.09457	-1014.59631	1508.29016	-79.80605	-812.55414	1416.51221	-279.67630	-1121.45227	1427.91809	-250.43611	-970.51959	1295.77246	-209.19815	-993.74146	1412.56775	-375.76965	-658.25891	1155.46533	-311.19177										-922.48785	1005.10999	-184.26936	-1056.11194	983.39093	-187.72165	-960.34668	930.43219	-451.00739	-885.51819	456.07336	-139.05597	-1160.03027	517.97211	-430.14539	-964.33655	104.27300	-112.98766				
162	1.610	-887.33447	1422.87354	-37.11961	-952.76349	1659.97241	-227.19658	-822.30341	1550.95178	-193.78172	-1012.35754	1507.53271	-70.61272	-812.30078	1415.06238	-271.56616	-1121.34253	1426.53577	-239.90649	-969.27844	1292.49133	-202.20390	-994.64575	1411.21045	-366.61176	-658.94214	1154.61230	-306.56503										-922.42548	1004.76080	-174.67886	-1055.67139	982.96967	-174.52991	-961.82251	930.11163	-442.39407	-884.65155	451.67065	-134.41243	-1157.28040	517.75061	-424.31821	-960.98047	103.72688	-92.20902				
